<!-- icon666.com - MILLIONS OF FREE VECTOR ICONS --><svg viewBox="0 0 64 64" xmlns="http://www.w3.org/2000/svg"><g id="bank-money-finnance-currency-button"><circle cx="32" cy="32" fill="#2488ff" r="29"></circle><path d="m52.508 11.492-41.016 41.016a29 29 0 0 0 41.016-41.016z" fill="#006df0"></path><path d="m14 45h36v4h-36z" fill="#ee8700"></path><path d="m17 31h30v14h-30z" fill="#ffa733"></path><path d="m51 27h-38l19-14z" fill="#ffa733"></path><g fill="#ff6243"><circle cx="32" cy="21" r="2"></circle><path d="m35 37a3 3 0 0 0 -6 0v8h6z"></path><path d="m44 37a3 3 0 0 0 -6 0v8h6z"></path><path d="m26 37a3 3 0 0 0 -6 0v8h6z"></path></g><path d="m49 31v-4h-34v4h2 30z" fill="#ee8700"></path><path d="m17 31h30v1h-30z" fill="#ff9811"></path><path d="m30 8.079a1 1 0 0 1 -.078-2c.688-.051 1.388-.079 2.078-.079a1 1 0 0 1 0 2c-.638 0-1.285.025-1.921.076z" fill="#f1f2f2"></path><path d="m7 33a1 1 0 0 1 -1-1 25.952 25.952 0 0 1 19.76-25.243 1 1 0 1 1 .48 1.943 23.958 23.958 0 0 0 -18.24 23.3 1 1 0 0 1 -1 1z" fill="#f1f2f2"></path></g></svg>