<svg width="105" height="34" viewBox="0 0 105 34" fill="none" xmlns="http://www.w3.org/2000/svg">
<path d="M27.072 24.672C26.176 27.36 24.608 29.456 22.368 30.96C20.128 32.432 17.472 33.168 14.4 33.168C11.488 33.168 8.95999 32.512 6.81599 31.2C4.67199 29.856 2.99199 27.968 1.77599 25.536C0.591987 23.104 -1.30534e-05 20.208 -1.30534e-05 16.848C-1.30534e-05 13.488 0.591987 10.592 1.77599 8.15999C2.99199 5.72799 4.67199 3.85599 6.81599 2.54399C8.95999 1.19999 11.472 0.527987 14.352 0.527987C20.72 0.527987 24.816 3.13599 26.64 8.35199L24.288 9.45599C23.552 7.24799 22.384 5.58399 20.784 4.46399C19.184 3.31199 17.088 2.73599 14.496 2.73599C12.128 2.73599 10.032 3.31199 8.20799 4.46399C6.41599 5.58399 5.02399 7.19999 4.03199 9.31199C3.03999 11.424 2.54399 13.936 2.54399 16.848C2.54399 19.76 3.02399 22.272 3.98399 24.384C4.97599 26.496 6.35199 28.128 8.11199 29.28C9.90399 30.4 12 30.96 14.4 30.96C16.96 30.96 19.136 30.352 20.928 29.136C22.72 27.888 23.968 26.096 24.672 23.76L27.072 24.672ZM42.963 8.20799C45.203 8.20799 47.171 8.70399 48.867 9.69599C50.595 10.688 51.939 12.128 52.899 14.016C53.891 15.872 54.387 18.096 54.387 20.688C54.387 23.28 53.891 25.52 52.899 27.408C51.939 29.264 50.595 30.688 48.867 31.68C47.171 32.672 45.203 33.168 42.963 33.168C40.723 33.168 38.739 32.672 37.011 31.68C35.315 30.688 33.971 29.264 32.979 27.408C32.019 25.52 31.539 23.28 31.539 20.688C31.539 18.096 32.019 15.872 32.979 14.016C33.971 12.128 35.315 10.688 37.011 9.69599C38.739 8.70399 40.723 8.20799 42.963 8.20799ZM42.963 10.272C40.243 10.272 38.051 11.2 36.387 13.056C34.755 14.912 33.939 17.456 33.939 20.688C33.939 23.92 34.755 26.464 36.387 28.32C38.051 30.176 40.243 31.104 42.963 31.104C45.683 31.104 47.859 30.176 49.491 28.32C51.155 26.464 51.987 23.92 51.987 20.688C51.987 17.456 51.155 14.912 49.491 13.056C47.859 11.2 45.683 10.272 42.963 10.272ZM62.4491 4.03199C61.8411 4.03199 61.3451 3.85599 60.9611 3.50399C60.6091 3.11999 60.4331 2.62399 60.4331 2.01599C60.4331 1.40799 60.6091 0.927986 60.9611 0.575987C61.3451 0.191986 61.8411 -1.43051e-05 62.4491 -1.43051e-05C63.0571 -1.43051e-05 63.5371 0.191986 63.8891 0.575987C64.2731 0.927986 64.4651 1.40799 64.4651 2.01599C64.4651 2.62399 64.2731 3.11999 63.8891 3.50399C63.5371 3.85599 63.0571 4.03199 62.4491 4.03199ZM63.6491 8.68799V32.688H61.2491V8.68799H63.6491ZM72.2179 32.688V8.68799H74.3779L74.5219 13.488C75.2579 11.792 76.4259 10.496 78.0259 9.59999C79.6259 8.67199 81.4339 8.20799 83.4499 8.20799C86.1059 8.20799 88.2979 8.95999 90.0259 10.464C91.7539 11.968 92.6179 14.192 92.6179 17.136V32.688H90.2179V17.904C90.2179 15.28 89.5619 13.36 88.2499 12.144C86.9379 10.928 85.2579 10.32 83.2099 10.32C81.7059 10.32 80.2979 10.672 78.9859 11.376C77.6739 12.048 76.6179 13.04 75.8179 14.352C75.0179 15.664 74.6179 17.264 74.6179 19.152V32.688H72.2179ZM101.913 28.752C102.553 28.752 103.065 28.96 103.449 29.376C103.865 29.76 104.073 30.272 104.073 30.912C104.073 31.552 103.865 32.08 103.449 32.496C103.065 32.88 102.553 33.072 101.913 33.072C101.273 33.072 100.745 32.88 100.329 32.496C99.9454 32.08 99.7534 31.552 99.7534 30.912C99.7534 30.272 99.9454 29.76 100.329 29.376C100.745 28.96 101.273 28.752 101.913 28.752Z" fill="white"/>
</svg>
